<?xml version="1.0" encoding="iso-8859-1"?>
<!-- Uploaded to: SVG Repo, www.svgrepo.com, Generator: SVG Repo Mixer Tools -->
<svg fill="#000000" height="800px" width="800px" version="1.1" id="Capa_1" xmlns="http://www.w3.org/2000/svg" xmlns:xlink="http://www.w3.org/1999/xlink" 
	 viewBox="0 0 55.479 55.479" xml:space="preserve">
<g>
	<g>
		<path d="M50.598,13.716c-0.037-0.239-0.16-0.456-0.346-0.61L42.779,6.85l0.094-5.574c0.004-0.268-0.099-0.526-0.287-0.718
			c-0.147-0.15-0.342-0.23-0.546-0.265c-0.113-0.044-0.231-0.074-0.357-0.074h-7h-14h-7c-0.092,0-0.18,0.017-0.266,0.041H13.31
			c-0.269,0-0.525,0.108-0.713,0.299c-0.189,0.191-0.291,0.45-0.287,0.718l0.098,5.818l-7.183,6.011
			c-0.186,0.155-0.309,0.372-0.346,0.611L0.013,44.451c-0.087,0.545,0.285,1.058,0.831,1.144L9.46,46.96
			c0.261,0.042,0.529-0.023,0.744-0.179c0.215-0.156,0.358-0.391,0.399-0.653l2.226-14.052l0.374,22.2
			c0.01,0.545,0.454,0.983,1,0.983H40.98c0.546,0,0.99-0.438,1-0.983l0.402-23.888l2.493,15.74c0.041,0.262,0.185,0.497,0.399,0.653
			c0.214,0.155,0.481,0.221,0.744,0.179l8.616-1.365c0.546-0.086,0.918-0.599,0.831-1.144L50.598,13.716z M32.987,2.26l-5.304,9.85
			l-5.304-9.85C22.378,2.26,32.987,2.26,32.987,2.26z M20.107,2.26l3.834,7.12l-7.667-7.12H20.107z M35.258,2.26h3.834l-7.667,7.12
			L35.258,2.26z M2.144,43.776l0.427-2.698l6.635,1.088l-0.422,2.662L2.144,43.776z M14.636,20.573
			c-0.009-0.518-0.413-0.944-0.93-0.98c-0.532-0.034-0.977,0.329-1.058,0.841L9.519,40.191l-6.635-1.088l3.911-24.704l7.262-6.077
			c0.231-0.194,0.363-0.482,0.358-0.784l-0.073-4.341l12.34,11.458V53.26H15.186L14.636,20.573z M41.506,17.905
			c-0.518,0.036-0.921,0.462-0.93,0.98L39.997,53.26H28.682V14.656L40.838,3.369l-0.066,3.925c-0.005,0.302,0.127,0.59,0.358,0.783
			l7.553,6.322l3.916,24.73l-6.635,1.088l-3.4-21.47C42.482,18.234,42.03,17.867,41.506,17.905z M46.694,44.828l-0.417-2.636
			l6.635-1.088l0.423,2.672L46.694,44.828z"/>
		<path d="M32.682,22.219h-2c-0.553,0-1,0.448-1,1s0.447,1,1,1h2c0.553,0,1-0.448,1-1S33.235,22.219,32.682,22.219z"/>
		<path d="M32.682,26.219h-2c-0.553,0-1,0.448-1,1s0.447,1,1,1h2c0.553,0,1-0.448,1-1S33.235,26.219,32.682,26.219z"/>
		<path d="M32.682,30.219h-2c-0.553,0-1,0.448-1,1s0.447,1,1,1h2c0.553,0,1-0.448,1-1S33.235,30.219,32.682,30.219z"/>
		<path d="M32.682,34.219h-2c-0.553,0-1,0.448-1,1s0.447,1,1,1h2c0.553,0,1-0.448,1-1S33.235,34.219,32.682,34.219z"/>
	</g>
</g>
</svg>